<svg width="24" height="25" viewBox="0 0 24 25" fill="none" xmlns="http://www.w3.org/2000/svg">
<path d="M11.2498 2.5C7.03145 2.50411 4.84888 2.57958 3.46423 3.96423C2.07958 5.34888 2.00411 7.53145 2 11.7498H6.91352C6.56255 11.3114 6.30031 10.7943 6.15731 10.2223C5.61906 8.06926 7.56926 6.11906 9.72228 6.65731C10.2943 6.80031 10.8114 7.06255 11.2498 7.41352V2.5Z" fill="#171717"/>
<path d="M2 13.2498C2.00411 17.4681 2.07958 19.6506 3.46423 21.0353C4.84888 22.4199 7.03145 22.4954 11.2498 22.4995V14.6234C10.4701 16.1807 8.8598 17.2498 6.99976 17.2498C6.58555 17.2498 6.24976 16.914 6.24976 16.4998C6.24976 16.0856 6.58555 15.7498 6.99976 15.7498C8.53655 15.7498 9.82422 14.6831 10.1628 13.2498H2Z" fill="#171717"/>
<path d="M12.7498 22.4995C16.9681 22.4954 19.1506 22.4199 20.5353 21.0353C21.9199 19.6506 21.9954 17.4681 21.9995 13.2498H13.8367C14.1753 14.6831 15.463 15.7498 16.9998 15.7498C17.414 15.7498 17.7498 16.0856 17.7498 16.4998C17.7498 16.914 17.414 17.2498 16.9998 17.2498C15.1397 17.2498 13.5294 16.1807 12.7498 14.6234V22.4995Z" fill="#171717"/>
<path d="M21.9995 11.7498C21.9954 7.53145 21.9199 5.34888 20.5353 3.96423C19.1506 2.57958 16.9681 2.50411 12.7498 2.5V7.41352C13.1882 7.06255 13.7053 6.80031 14.2772 6.65731C16.4303 6.11906 18.3805 8.06926 17.8422 10.2223C17.6992 10.7943 17.437 11.3114 17.086 11.7498H21.9995Z" fill="#171717"/>
<path d="M9.35847 8.11252C10.47 8.3904 11.2498 9.38911 11.2498 10.5348V11.7498H10.0348C8.88911 11.7498 7.8904 10.97 7.61252 9.85847C7.34891 8.80403 8.30403 7.84891 9.35847 8.11252Z" fill="#171717"/>
<path d="M12.7498 10.5348V11.7498H13.9647C15.1104 11.7498 16.1091 10.97 16.387 9.85847C16.6506 8.80403 15.6955 7.84891 14.6411 8.11252C13.5295 8.3904 12.7498 9.38911 12.7498 10.5348Z" fill="#171717"/>
</svg>
