<svg width="243" height="40" viewBox="0 0 243 40" fill="none" xmlns="http://www.w3.org/2000/svg">
<rect width="40" height="40" rx="20" fill="#404040"/>
<path fill-rule="evenodd" clip-rule="evenodd" d="M20 30C25.5228 30 30 25.5228 30 20C30 14.4772 25.5228 10 20 10C14.4772 10 10 14.4772 10 20C10 21.5997 10.3756 23.1116 11.0435 24.4525C11.2209 24.8088 11.28 25.2161 11.1771 25.6006L10.5815 27.8267C10.323 28.793 11.207 29.677 12.1733 29.4185L14.3994 28.8229C14.7839 28.72 15.1912 28.7791 15.5475 28.9565C16.8884 29.6244 18.4003 30 20 30ZM16 21.25C15.5858 21.25 15.25 21.5858 15.25 22C15.25 22.4142 15.5858 22.75 16 22.75H21.5C21.9142 22.75 22.25 22.4142 22.25 22C22.25 21.5858 21.9142 21.25 21.5 21.25H16ZM15.25 18.5C15.25 18.0858 15.5858 17.75 16 17.75H24C24.4142 17.75 24.75 18.0858 24.75 18.5C24.75 18.9142 24.4142 19.25 24 19.25H16C15.5858 19.25 15.25 18.9142 15.25 18.5Z" fill="white"/>
<path d="M242.414 21.4142C243.195 20.6332 243.195 19.3668 242.414 18.5858L229.686 5.85786C228.905 5.07682 227.639 5.07682 226.858 5.85786C226.077 6.63891 226.077 7.90524 226.858 8.68629L238.172 20L226.858 31.3137C226.077 32.0948 226.077 33.3611 226.858 34.1421C227.639 34.9232 228.905 34.9232 229.686 34.1421L242.414 21.4142ZM40 22H241V18H40V22Z" fill="#404040"/>
</svg>
