<svg width="40" height="40" viewBox="0 0 40 40" fill="none" xmlns="http://www.w3.org/2000/svg">
<rect width="40" height="40" rx="20" fill="#404040"/>
<path fill-rule="evenodd" clip-rule="evenodd" d="M30 20C30 25.5228 25.5228 30 20 30C18.4003 30 16.8884 29.6244 15.5475 28.9565C15.1912 28.7791 14.7839 28.72 14.3994 28.8229L12.1733 29.4185C11.207 29.677 10.323 28.793 10.5815 27.8267L11.1771 25.6006C11.28 25.2161 11.2209 24.8088 11.0435 24.4525C10.3756 23.1116 10 21.5997 10 20C10 14.4772 14.4772 10 20 10C25.5228 10 30 14.4772 30 20ZM23.5303 17.4697C23.8232 17.7626 23.8232 18.2374 23.5303 18.5303L19.5303 22.5303C19.2417 22.819 18.7751 22.8238 18.4806 22.541L16.4806 20.621C16.1818 20.3342 16.1721 19.8594 16.459 19.5606C16.7458 19.2618 17.2206 19.2521 17.5194 19.539L18.9893 20.9501L22.4697 17.4697C22.7626 17.1768 23.2374 17.1768 23.5303 17.4697Z" fill="white"/>
</svg>
