<svg width="345" height="40" viewBox="0 0 345 40" fill="none" xmlns="http://www.w3.org/2000/svg">
<rect width="40" height="40" rx="20" fill="#7B44F2"/>
<path fill-rule="evenodd" clip-rule="evenodd" d="M18 12H22C25.7712 12 27.6569 12 28.8284 13.1716C30 14.3431 30 16.2288 30 20C30 23.7712 30 25.6569 28.8284 26.8284C27.6569 28 25.7712 28 22 28H18C14.2288 28 12.3431 28 11.1716 26.8284C10 25.6569 10 23.7712 10 20C10 16.2288 10 14.3431 11.1716 13.1716C12.3431 12 14.2288 12 18 12ZM21.25 17C21.25 16.5858 21.5858 16.25 22 16.25H27C27.4142 16.25 27.75 16.5858 27.75 17C27.75 17.4142 27.4142 17.75 27 17.75H22C21.5858 17.75 21.25 17.4142 21.25 17ZM22.25 20C22.25 19.5858 22.5858 19.25 23 19.25H27C27.4142 19.25 27.75 19.5858 27.75 20C27.75 20.4142 27.4142 20.75 27 20.75H23C22.5858 20.75 22.25 20.4142 22.25 20ZM23.25 23C23.25 22.5858 23.5858 22.25 24 22.25H27C27.4142 22.25 27.75 22.5858 27.75 23C27.75 23.4142 27.4142 23.75 27 23.75H24C23.5858 23.75 23.25 23.4142 23.25 23ZM19 17C19 18.1046 18.1046 19 17 19C15.8954 19 15 18.1046 15 17C15 15.8954 15.8954 15 17 15C18.1046 15 19 15.8954 19 17ZM17 25C21 25 21 24.1046 21 23C21 21.8954 19.2091 21 17 21C14.7909 21 13 21.8954 13 23C13 24.1046 13 25 17 25Z" fill="white"/>
<path d="M344.41 21.9189C345.193 21.1404 345.197 19.8741 344.419 19.0905L331.733 6.3206C330.955 5.53698 329.688 5.5328 328.905 6.31127C328.121 7.08973 328.117 8.35606 328.895 9.13968L340.172 20.4907L328.821 31.767C328.037 32.5454 328.033 33.8118 328.811 34.5954C329.59 35.379 330.856 35.3832 331.64 34.6047L344.41 21.9189ZM39.9934 21.5L342.993 22.5L343.007 18.5L40.0066 17.5L39.9934 21.5Z" fill="#7B44F2"/>
</svg>
