<svg width="24" height="24" viewBox="0 0 24 24" fill="none" xmlns="http://www.w3.org/2000/svg">
<g clip-path="url(#clip0_823_371)">
<path d="M12 24C18.6274 24 24 18.6274 24 12C24 5.37258 18.6274 0 12 0C5.37258 0 0 5.37258 0 12C0 18.6274 5.37258 24 12 24Z" fill="url(#paint0_linear_823_371)"/>
<path fill-rule="evenodd" clip-rule="evenodd" d="M5.43189 11.8739C8.93014 10.3498 11.2628 9.34501 12.43 8.85954C15.7626 7.47343 16.455 7.23264 16.9064 7.22469C17.0056 7.22295 17.2276 7.24755 17.3714 7.36421C17.4928 7.46272 17.5262 7.59579 17.5422 7.68918C17.5581 7.78258 17.578 7.99534 17.5622 8.16158C17.3816 10.0591 16.6002 14.6638 16.2027 16.789C16.0345 17.6882 15.7032 17.9897 15.3826 18.0192C14.6857 18.0834 14.1566 17.5587 13.4816 17.1163C12.4255 16.424 11.8288 15.993 10.8036 15.3174C9.61884 14.5367 10.3869 14.1075 11.0621 13.4062C11.2388 13.2227 14.3092 10.43 14.3686 10.1766C14.376 10.1449 14.3829 10.0268 14.3128 9.96446C14.2426 9.90209 14.139 9.92342 14.0643 9.94038C13.9584 9.96442 12.2712 11.0796 9.00264 13.286C8.52373 13.6148 8.08994 13.775 7.70129 13.7666C7.27283 13.7574 6.44864 13.5244 5.83594 13.3252C5.08444 13.0809 4.48716 12.9518 4.53917 12.5369C4.56626 12.3208 4.86383 12.0998 5.43189 11.8739Z" fill="white"/>
</g>
<defs>
<linearGradient id="paint0_linear_823_371" x1="12" y1="0" x2="12" y2="23.822" gradientUnits="userSpaceOnUse">
<stop stop-color="#2AABEE"/>
<stop offset="1" stop-color="#229ED9"/>
</linearGradient>
<clipPath id="clip0_823_371">
<rect width="24" height="24" fill="white"/>
</clipPath>
</defs>
</svg>
