<svg width="32" height="32" viewBox="0 0 32 32" fill="none" xmlns="http://www.w3.org/2000/svg">
<path d="M24.8475 20.8939L27.1361 14.0281C29.1354 8.03021 30.135 5.03129 28.552 3.44826C26.969 1.86524 23.9701 2.86488 17.9722 4.86416L11.1064 7.15275C6.26561 8.76637 3.84518 9.57318 3.15737 10.7563C2.50304 11.8818 2.50304 13.2719 3.15737 14.3974C3.84518 15.5806 6.2656 16.3874 11.1064 18.001C11.7064 18.201 12.3813 18.0582 12.8305 17.6131L20.1714 10.3403C20.5844 9.9311 21.2509 9.93421 21.66 10.3472C22.0692 10.7602 22.0661 11.4267 21.6531 11.8358L14.4308 18.9912C13.9356 19.4818 13.7789 20.2326 13.9993 20.8938C15.6129 25.7347 16.4197 28.1551 17.6028 28.8429C18.7284 29.4972 20.1185 29.4972 21.244 28.8429C22.4271 28.1551 23.2339 25.7347 24.8475 20.8939Z" fill="black"/>
</svg>
