<svg width="19" height="18" viewBox="0 0 19 18" fill="none" xmlns="http://www.w3.org/2000/svg">
<g clip-path="url(#clip0_143_1859)">
<path d="M1.82129 7.7527C1.58635 7.53544 1.71397 7.14267 2.03174 7.10499L6.53442 6.57092C6.66394 6.55557 6.77643 6.47424 6.83105 6.35581L8.73022 2.23847C8.86425 1.94789 9.27735 1.94784 9.41138 2.23841L11.3105 6.35572C11.3652 6.47415 11.4769 6.5557 11.6064 6.57105L16.1094 7.10499C16.4271 7.14267 16.5544 7.53555 16.3195 7.75282L12.9909 10.8316C12.8951 10.9201 12.8525 11.0519 12.8779 11.1798L13.7613 15.6271C13.8237 15.9409 13.4897 16.1841 13.2104 16.0278L9.25393 13.8126C9.14012 13.7489 9.00187 13.7492 8.88806 13.8129L4.93115 16.0273C4.65192 16.1836 4.31727 15.9409 4.37964 15.6271L5.26318 11.1801C5.28859 11.0522 5.24607 10.9201 5.15032 10.8315L1.82129 7.7527Z" fill="#AFB9BB" stroke="#AFB9BB" stroke-width="1.5" stroke-linecap="round" stroke-linejoin="round"/>
</g>
<defs>
<clipPath id="clip0_143_1859">
<rect width="18" height="18" fill="white" transform="translate(0.0700684)"/>
</clipPath>
</defs>
</svg>
