<svg width="25" height="24" viewBox="0 0 25 24" fill="none" xmlns="http://www.w3.org/2000/svg">
<path d="M19.7573 14.0931L19.9406 12.3884C20.0385 11.4789 20.1031 10.8783 20.0524 10.4999L20.0701 10.5C20.8985 10.5 21.5701 9.82843 21.5701 9C21.5701 8.17157 20.8985 7.5 20.0701 7.5C19.2416 7.5 18.5701 8.17157 18.5701 9C18.5701 9.37466 18.7074 9.71724 18.9345 9.98013C18.6085 10.1814 18.1822 10.606 17.5406 11.2451L17.5406 11.2451C17.0463 11.7375 16.7991 11.9837 16.5234 12.0219C16.3706 12.043 16.2149 12.0213 16.0739 11.9592C15.8193 11.847 15.6495 11.5427 15.31 10.934L13.5205 7.7254C13.3111 7.34987 13.1358 7.03557 12.9777 6.78265C13.6261 6.45187 14.0701 5.77778 14.0701 5C14.0701 3.89543 13.1746 3 12.0701 3C10.9655 3 10.0701 3.89543 10.0701 5C10.0701 5.77778 10.514 6.45187 11.1624 6.78265C11.0043 7.03559 10.8291 7.34984 10.6196 7.7254L8.83013 10.934C8.49063 11.5427 8.32088 11.847 8.06628 11.9592C7.9252 12.0213 7.76954 12.043 7.61677 12.0219C7.34104 11.9837 7.09388 11.7375 6.59956 11.2451C5.95793 10.606 5.53163 10.1814 5.2056 9.98012C5.43271 9.71724 5.57007 9.37466 5.57007 9C5.57007 8.17157 4.8985 7.5 4.07007 7.5C3.24164 7.5 2.57007 8.17157 2.57007 9C2.57007 9.82843 3.24164 10.5 4.07007 10.5L4.08778 10.4999C4.03708 10.8783 4.10168 11.4789 4.19951 12.3884L4.38287 14.0931C4.48465 15.0393 4.56928 15.9396 4.67294 16.75H19.4672C19.5709 15.9396 19.6555 15.0393 19.7573 14.0931Z" fill="black"/>
<path d="M10.9821 21H13.158C15.9939 21 17.4119 21 18.358 20.1532C18.7709 19.7835 19.0324 19.1172 19.2211 18.25H4.91903C5.10772 19.1172 5.3692 19.7835 5.78214 20.1532C6.72824 21 8.1462 21 10.9821 21Z" fill="black"/>
</svg>
