<svg width="8" height="8" viewBox="0 0 8 8" fill="none" xmlns="http://www.w3.org/2000/svg">
<path d="M0.77832 3.44608C0.673904 3.34952 0.730623 3.17495 0.871855 3.15821L2.87305 2.92084C2.93061 2.91402 2.98061 2.87787 3.00488 2.82524L3.84896 0.995309C3.90853 0.866164 4.09212 0.866139 4.15169 0.995284L4.99577 2.8252C5.02005 2.87783 5.06972 2.91408 5.12728 2.9209L7.12858 3.15821C7.26981 3.17495 7.32637 3.34957 7.22196 3.44613L5.74259 4.81446C5.70003 4.85381 5.68109 4.91239 5.69238 4.96924L6.085 6.94581C6.11272 7.0853 5.96426 7.19338 5.84016 7.12392L4.08172 6.13936C4.03114 6.11105 3.96969 6.11118 3.91911 6.13949L2.16048 7.12366C2.03638 7.19313 1.88765 7.08529 1.91536 6.9458L2.30805 4.96937C2.31934 4.91251 2.30045 4.8538 2.25789 4.81445L0.77832 3.44608Z" fill="black" stroke="black" stroke-width="0.666667" stroke-linecap="round" stroke-linejoin="round"/>
</svg>
