<svg width="24" height="24" viewBox="0 0 24 24" fill="none" xmlns="http://www.w3.org/2000/svg">
<path d="M2.33496 10.3373C2.02171 10.0476 2.19187 9.52388 2.61557 9.47365L8.61914 8.76156C8.79182 8.74108 8.94181 8.63264 9.01465 8.47474L11.5469 2.98495C11.7256 2.59751 12.2764 2.59744 12.4551 2.98488L14.9873 8.47462C15.0601 8.63253 15.2092 8.74126 15.3818 8.76173L21.3857 9.47365C21.8094 9.52388 21.9791 10.0477 21.6659 10.3374L17.2278 14.4424C17.1001 14.5605 17.0433 14.7362 17.0771 14.9068L18.255 20.8364C18.3382 21.2549 17.8928 21.5792 17.5205 21.3708L12.2451 18.4171C12.0934 18.3322 11.9091 18.3326 11.7573 18.4175L6.48144 21.37C6.10913 21.5784 5.66294 21.2549 5.74609 20.8364L6.92414 14.9071C6.95803 14.7366 6.90134 14.5604 6.77367 14.4424L2.33496 10.3373Z" fill="#AFB9BB" stroke="#AFB9BB" stroke-width="2" stroke-linecap="round" stroke-linejoin="round"/>
</svg>
