<svg width="40" height="40" viewBox="0 0 40 40" fill="none" xmlns="http://www.w3.org/2000/svg">
<path fill-rule="evenodd" clip-rule="evenodd" d="M15.9875 5.33346C15.5816 5.67935 15.3787 5.8523 15.1619 5.99757C14.6651 6.33058 14.1071 6.5617 13.5203 6.67755C13.2643 6.72808 12.9986 6.74929 12.467 6.79172C11.1313 6.8983 10.4635 6.95159 9.90634 7.14839C8.61768 7.60356 7.60405 8.61719 7.14888 9.90585C6.95208 10.463 6.89879 11.1308 6.7922 12.4665C6.74978 12.9981 6.72857 13.2639 6.67803 13.5198C6.56219 14.1066 6.33107 14.6646 5.99806 15.1614C5.85279 15.3782 5.67984 15.5811 5.33395 15.987C4.46489 17.0068 4.03034 17.5167 3.77552 18.0499C3.18615 19.2829 3.18615 20.7164 3.77552 21.9495C4.03034 22.4826 4.46488 22.9925 5.33395 24.0123C5.6798 24.4182 5.8528 24.6212 5.99806 24.8379C6.33107 25.3347 6.56219 25.8927 6.67803 26.4795C6.72857 26.7355 6.74978 27.0013 6.7922 27.5329C6.89879 28.8685 6.95208 29.5363 7.14888 30.0935C7.60405 31.3822 8.61768 32.3958 9.90634 32.851C10.4635 33.0478 11.1313 33.101 12.467 33.2076C12.9986 33.2501 13.2643 33.2713 13.5203 33.3218C14.1071 33.4376 14.6651 33.6688 15.1619 34.0018C15.3787 34.147 15.5816 34.32 15.9875 34.6659C17.0073 35.535 17.5172 35.9695 18.0503 36.2243C19.2834 36.8137 20.7169 36.8137 21.95 36.2243C22.4831 35.9695 22.993 35.535 24.0128 34.6659C24.4187 34.32 24.6217 34.147 24.8384 34.0018C25.3352 33.6688 25.8932 33.4376 26.48 33.3218C26.736 33.2713 27.0018 33.2501 27.5334 33.2076C28.869 33.101 29.5368 33.0478 30.094 32.851C31.3826 32.3958 32.3963 31.3822 32.8514 30.0935C33.0482 29.5363 33.1015 28.8685 33.2081 27.5329C33.2505 27.0013 33.2718 26.7355 33.3223 26.4795C33.4381 25.8927 33.6693 25.3347 34.0023 24.8379C34.1475 24.6212 34.3205 24.4182 34.6664 24.0123C35.5354 22.9925 35.97 22.4826 36.2248 21.9495C36.8142 20.7164 36.8142 19.2829 36.2248 18.0499C35.97 17.5167 35.5354 17.0068 34.6664 15.987C34.3205 15.5811 34.1475 15.3782 34.0023 15.1614C33.6693 14.6646 33.4381 14.1066 33.3223 13.5198C33.2718 13.2639 33.2505 12.9981 33.2081 12.4665C33.1015 11.1308 33.0482 10.463 32.8514 9.90585C32.3963 8.61719 31.3826 7.60356 30.094 7.14839C29.5368 6.95159 28.869 6.8983 27.5334 6.79172C27.0018 6.74929 26.736 6.72808 26.48 6.67755C25.8932 6.5617 25.3352 6.33058 24.8384 5.99757C24.6216 5.8523 24.4187 5.67935 24.0128 5.33346C22.993 4.46439 22.4831 4.02985 21.95 3.77503C20.7169 3.18567 19.2834 3.18567 18.0503 3.77503C17.5172 4.02985 17.0073 4.4644 15.9875 5.33346ZM27.2893 16.4382C27.819 15.9085 27.819 15.0497 27.2893 14.5199C26.7596 13.9902 25.9007 13.9902 25.371 14.5199L17.2873 22.6037L14.6293 19.9457C14.0995 19.416 13.2407 19.416 12.711 19.9457C12.1813 20.4754 12.1813 21.3342 12.711 21.864L16.3281 25.4811C16.8578 26.0108 17.7167 26.0108 18.2464 25.4811L27.2893 16.4382Z" fill="black"/>
</svg>
