<svg width="24" height="25" viewBox="0 0 24 25" fill="none" xmlns="http://www.w3.org/2000/svg">
<path d="M16.1628 7.33709C19.3876 9.52928 21 10.6254 21 12.5001C21 14.3748 19.3876 15.4709 16.1628 17.6631C15.2726 18.2682 14.3897 18.838 13.5783 19.3128C12.8665 19.7293 12.0604 20.1602 11.2258 20.5831C8.00859 22.2134 6.39999 23.0286 4.95724 22.1261C3.5145 21.2236 3.38338 19.3342 3.12114 15.5555C3.04698 14.4868 3 13.4392 3 12.5001C3 11.5609 3.04698 10.5133 3.12114 9.4447C3.38338 5.66597 3.5145 3.7766 4.95725 2.87408C6.39999 1.97155 8.00859 2.78672 11.2258 4.41706C12.0604 4.84 12.8665 5.27085 13.5783 5.68738C14.3897 6.16216 15.2726 6.73193 16.1628 7.33709Z" stroke="#1C274C" stroke-width="1.5"/>
</svg>
