<svg width="350" height="127" viewBox="0 0 350 127" fill="none" xmlns="http://www.w3.org/2000/svg">
<path d="M2 125.379C3.72054 118.752 5.46265 112.581 9.35783 106.868C15.1071 98.4362 25.7066 94.4647 35.2651 92.2302C59.5115 86.5622 81.3742 102.547 103.693 109.424C125.832 116.246 154.686 117.632 168.907 95.8704C173.296 89.1529 175.316 81.4243 180.176 74.92C185.54 67.7394 191.479 63.6336 200.429 62.2567C214.034 60.1636 227.52 67.7217 238.883 74.3004C247.403 79.233 255.81 83.3908 265.798 84.0979C274.487 84.713 285.423 86.174 291.124 78.2116C296.15 71.1926 296.406 63.2878 297.862 55.1313C299.612 45.3306 303.688 34.2117 311.068 27.2102C321.946 16.8897 337.85 12.5872 348.438 2" stroke="#8C8C8E" stroke-width="3" stroke-linecap="round"/>
</svg>
